<svg version="1.1" id="Layer_1" xmlns="http://www.w3.org/2000/svg" xmlns:xlink="http://www.w3.org/1999/xlink" x="0px" y="0px"
	 width="954.098px" height="521.311px" viewBox="0 0 954.098 521.311" enable-background="new 0 0 954.098 521.311"
	 xml:space="preserve">
<polyline fill-rule="evenodd" clip-rule="evenodd" fill="#19144a" points="561.714,139.107 543.257,139.107 516.073,139.107 
	464.388,256.899 455.676,276.697 464.388,276.697 501.317,276.697 543.257,180.748 561.714,139.107 "/>
<path fill-rule="evenodd" clip-rule="evenodd" fill="#19144a" d="M464.388,225.039l3.021-7.056c0.68-1.01,1.343-3.038,2.684-5.705
	c0.34-1.698,1.02-3.362,1.358-5.042c3.024-10.732,1.666-18.117-4.362-22.805c-0.68-0.34-1.683-1.028-2.7-1.698
	c-6.368-3.343-16.76-5.025-31.531-5.025H416.08c-4.701,0-9.066,0.338-13.43,0.678c-12.732,1.003-23.159,4.024-31.208,8.381
	c-10.409,6.042-18.794,16.444-25.162,31.215l-8.711,19.44c-1.715,3.371-2.36,5.385-2.699,6.725c-0.34,1.334-1.002,2.691-1.342,4.364
	c-3.022,10.4-1.358,18.125,4.364,22.472c6.045,4.371,17.437,6.722,34.214,6.722h16.774c5.045,0,9.391-0.347,13.77-0.66
	c13.093-1.01,23.499-3.694,31.207-8.399c10.07-6.052,18.475-16.444,25.183-31.225L464.388,225.039 M424.451,211.269
	c-0.322,1.333-1,3.024-1.663,4.354c-0.34,1.351-1.341,3.024-2.021,4.712l-6.368,15.087c-3.021,6.715-5.705,11.089-7.386,12.743
	c-1.017,1.01-2.7,2.02-4.364,2.701c-2.021,0.662-5.025,0.993-8.048,0.993h-5.041c-4.007,0-6.708-0.67-8.048-1.673
	c-1.358-1.01-1.664-3.013-0.663-5.712c0.323-1.664,0.663-3.007,1.021-4.017c0.643-1.01,1.306-2.681,2.326-5.034l6.365-15.087
	c3.024-6.715,5.722-11.077,8.065-13.097c1.003-1.003,2.344-1.68,4.024-2.353c2.021-0.67,4.705-1.001,8.048-1.001h5.045
	c4.007,0,6.705,0.678,8.048,1.673C425.149,206.581,425.472,208.577,424.451,211.269z"/>
<polyline fill-rule="evenodd" clip-rule="evenodd" fill="#19144a" points="945.275,178.388 894.252,178.388 854.316,213.951 
	852.993,213.951 885.523,139.107 840.903,139.107 790.575,253.885 780.509,276.697 790.575,276.697 825.129,276.697 
	841.906,238.452 843.586,238.452 856.337,276.697 908.703,276.697 888.887,225.692 945.275,178.388 "/>
<path fill-rule="evenodd" clip-rule="evenodd" fill="#19144a" d="M571.797,245.829c0.306-0.347,0.306-1.01,0.663-1.357l4.007-9.712
	h26.861h49.987l7.371-16.777v-0.34c0.695-1.348,1.358-3.021,2.375-5.365c0.664-1.698,0.986-3.362,1.664-5.042
	c2.684-10.409,1.36-17.787-4.039-22.134c0-0.347-0.323-0.347-0.646-0.67c-6.044-4.371-17.116-6.723-33.891-6.723h-17.114
	c-2.021,0-3.704,0-5.707,0.338c-16.451,0.34-29.205,3.346-38.593,8.721c-8.406,5.049-15.433,12.75-21.478,22.818
	c-1.341,2.691-2.683,5.698-4.042,8.396l-8.711,19.44c-1.341,3.371-2.341,5.385-2.681,6.725c-0.323,1.334-0.68,2.691-1.358,4.364
	c-3.006,10.4-1.326,18.125,4.719,22.472c2.666,2.02,6.691,3.709,12.073,5.052c6.045,1.01,13.072,1.67,21.818,1.67h17.097
	c7.726,0,14.774-0.66,21.156-1.67c7.71-1.003,14.756-3.031,20.461-6.055c10.409-5.025,18.78-13.753,25.18-25.833h-44.297
	c-0.341,0.67-1.021,1.68-1.343,2.361c-2.004,2.664-3.701,4.355-6.043,5.695c-2.36,1.333-6.045,2.02-10.409,2.02h-5.027
	c-4.685,0-7.726-0.688-9.066-1.688c-1.68-1.01-2.02-2.676-1.34-5.366C571.797,246.84,571.797,246.51,571.797,245.829
	 M586.213,212.949c2.326-4.72,4.704-8.066,7.369-10.059c2.36-1.358,5.384-2.368,9.746-2.368c0.662,0,1.343-0.333,2.343-0.333h5.027
	c4.702,0,7.708,0.67,9.066,2.02c1.326,1.003,1.68,3.347,0.662,6.368c-0.322,1.01-0.322,2.004-0.662,3.014
	c-0.323,1.01-0.678,1.69-0.678,2.36l-1.343,1.671h-14.415h-17.809L586.213,212.949z"/>
<path fill-rule="evenodd" clip-rule="evenodd" fill="#19144a" d="M796.62,210.581c0.985-2.684,2.003-5.025,2.666-7.369
	c2.7-9.059,0.68-15.433-5.365-19.458c-1.003-0.681-2.004-1.343-3.347-1.691c-6.705-3.021-16.774-4.355-30.544-4.355h-19.118
	c-7.389,0-14.111,0.678-19.798,1.681c-6.725,1.01-12.43,2.673-17.455,5.041c-8.728,4.34-15.773,11.726-20.461,22.455h37.916h6.705
	c1.343-3.675,3.684-5.695,7.03-6.698c1.018,0,3.022-0.323,6.063-0.323h6.705c5.705,0,7.708,2.343,6.044,6.715l-6.385,13.753
	c-4.702-4.039-12.071-6.042-21.479-6.042h-4.685h-6.384c-13.091,0-24.162,2.351-33.211,7.045
	c-9.069,4.694-15.433,11.409-19.475,19.781l-1.358,3.354l-2.344,5.389c-0.323,0.656-0.323,1.326-1.003,2.344
	c-0.34,1.01-0.662,2.02-1,2.676c-2.021,7.393-1.003,12.76,3.361,16.782c0.34,0.35,0.663,0.68,0.986,1.021
	c4.379,3.354,11.409,5.024,21.173,5.024h14.414c9.409,0,17.455-1.67,24.842-4.701c1.341-0.663,2.664-1.343,4.024-2.02l-2.684,5.712
	h44.943l23.176-52.346L796.62,210.581 M737.211,242.468l-2.004,4.702c-2.02,4.356-6.045,6.367-12.412,6.367h-1.68h-9.068
	c-6.722,0-9.049-2.011-7.046-6.367l2.021-4.702c2.003-4.364,6.027-6.368,12.412-6.368h1.68h9.389
	C736.872,236.101,739.215,238.104,737.211,242.468z"/>
<path fill-rule="evenodd" clip-rule="evenodd" fill="#19144a" d="M447.934,9.928C288.89,235.754,200.632,312.279,141.578,151.52
	C156.331,324.004,284.848,295.155,447.934,9.928"/>
<path fill-rule="evenodd" clip-rule="evenodd" fill="#19144a" d="M17.749,513.942C176.487,288.447,265.05,211.591,323.798,372.35
	C309.351,199.866,180.851,228.715,17.749,513.942"/>
<path fill-rule="evenodd" clip-rule="evenodd" fill="#dc182b" d="M396.623,36.763C282.182,199.866,218.104,254.881,175.469,139.107
	C186.198,263.599,278.82,242.808,396.623,36.763"/>
<path fill-rule="evenodd" clip-rule="evenodd" fill="#dc182b" d="M68.754,487.107C183.514,324.004,247.29,268.988,289.907,384.763
	C279.501,260.27,186.556,281.402,68.754,487.107"/>
</svg>
